<svg id="Layer_1" data-name="Layer 1" xmlns="http://www.w3.org/2000/svg" viewBox="0 0 265.3 84.62"><defs><style>.cls-1{fill:#8b0e1a;}.cls-2{fill:#4d4d4f;}.cls-3{fill:#fff;}.cls-3,.cls-4{fill-rule:evenodd;}.cls-4{fill:#b5191e;}</style></defs><title>vibrant-logo1</title><rect class="cls-1" y="15.66" width="54.68" height="57.38" rx="5.55"/><path class="cls-2" d="M113.41,42.44l5,31.91a69.34,69.34,0,0,1,.92,11.22v1a110.38,110.38,0,0,1,.91-12.21L125,42.44h8.17l-9.54,53.89h-8.7l-9.62-53.89Z" transform="translate(-39.17 -23.25)"/><path class="cls-2" d="M138.14,42.44h8.48V96.33h-8.48Z" transform="translate(-39.17 -23.25)"/><path class="cls-2" d="M154.94,42.44h11c8.93,0,13.89,5.19,13.89,14,0,5.42-1.91,9.39-5.8,12.29,4.43,2.52,6.49,6.65,6.49,13.13,0,9.93-4.28,14.43-13.28,14.43H154.94Zm11.6,22.44c3,0,4.81-2.59,4.81-7.4,0-5.27-1.76-7.26-5.5-7.26h-2.67V64.88Zm.23,23.67c3.59,0,5.19-2.45,5.19-7.71,0-5.88-1.68-8.17-6.11-8.17h-2.67V88.55Z" transform="translate(-39.17 -23.25)"/><path class="cls-2" d="M195.55,96.33h-8.33V42.44h12.22c9,0,13,4.5,13,15.57,0,6.41-1.38,10.53-5.27,13.28l6.11,25h-8.63l-5.11-22.67h-4Zm0-30.46h3.28c4,0,5.11-2.21,5.11-8.17,0-5.72-1.37-7.48-5.42-7.48h-3Z" transform="translate(-39.17 -23.25)"/><path class="cls-2" d="M224.17,42.44H235l8.86,53.89h-8.55l-1.68-11.68h-8.4l-1.76,11.68h-8.16ZM232.65,77,229.82,54.5h-.53l-3,22.52Z" transform="translate(-39.17 -23.25)"/><path class="cls-2" d="M248.6,42.44h7.48l10.53,32.21c.16.46.77,2.37,1.61,5.73a50.81,50.81,0,0,1-.92-7.25V42.44h7.79V96.33H267.3L257.15,66.56a58.79,58.79,0,0,1-1.76-5.88,63.06,63.06,0,0,1,.92,7.48V96.33H248.6Z" transform="translate(-39.17 -23.25)"/><path class="cls-2" d="M278.83,42.44h25.65v7.78h-8.71V96.33h-8.32V50.22h-8.62Z" transform="translate(-39.17 -23.25)"/><path class="cls-3" d="M58.1,53.11H58q0,6.38,0,12.74a2.41,2.41,0,0,0,.33,1.2,1.3,1.3,0,0,0,1.53.67,7.1,7.1,0,0,0,1.93-1.09q10.29-8.07,20.46-16.3a3.66,3.66,0,0,0,1.37-2.91c0-6.48,0-13,0-19.43a3,3,0,0,0-.37-1.4,1,1,0,0,0-.91-.55L60.3,26a2,2,0,0,0-2.16,2.17c0,4.1,0,8.19,0,12.29S58.1,48.89,58.1,53.11Z" transform="translate(-39.17 -23.25)"/><path class="cls-3" d="M84.37,51.07a2.35,2.35,0,0,0,.85-1.81l0-24.37a1.54,1.54,0,0,0-1.53-1.53l-26.44-.11A4.26,4.26,0,0,0,53,27.47l-.26,40.71a4.28,4.28,0,0,0,5.39,4.16v2.47a.8.8,0,0,0,.8.8H61l-6.78,4.77a.8.8,0,0,0,.46,1.46h5.94l-6.49,4a.79.79,0,0,0-.35.9.8.8,0,0,0,.77.58h6.08l-6.49,3.88a.8.8,0,0,0,.41,1.49h6.72L54,98.92a.83.83,0,0,0-.23.89.81.81,0,0,0,.75.52h5.81L54,105.77l0,2.09,8.86-7.53h.07v0l21.59-18.4,0-2.16-6.87,5.87V75.88l5.27-4.56a.78.78,0,0,0,.28-.61V61.18a.41.41,0,0,0-.41-.41H81.9a.4.4,0,0,0-.4.4v9.18L71.53,79V70.35a.38.38,0,0,0-.38-.38h-.82a.4.4,0,0,0-.4.39V80.73a.8.8,0,0,0,.47.73.75.75,0,0,0,.33.07.77.77,0,0,0,.52-.2L76,77.27V87L62.19,98.73H56.68L64,92.52a.8.8,0,0,0-.52-1.41h-6l6.49-3.88a.8.8,0,0,0-.41-1.49H57.37l6.5-4a.8.8,0,0,0,.34-.9.78.78,0,0,0-.77-.58H57.22L64,75.47a.83.83,0,0,0,.3-.9.82.82,0,0,0-.77-.56h-3.8v-2.5h0L76,58.05v11.7l-2.4,2.09v2.21l4-3.47h0v0l2.18-1.91V66.45l-2.18,1.9V56.73Z" transform="translate(-39.17 -23.25)"/><path class="cls-4" d="M59.91,25.87H82.55a1.1,1.1,0,0,1,1.1,1.1V48.49A1.72,1.72,0,0,1,83,49.85L61,67.23a1.75,1.75,0,0,1-2.83-1.37l0-38.25A1.76,1.76,0,0,1,59.91,25.87Z" transform="translate(-39.17 -23.25)"/></svg>